<svg width="30" height="28" viewBox="0 0 30 28" fill="none" xmlns="http://www.w3.org/2000/svg">
<path fill-rule="evenodd" clip-rule="evenodd" d="M16.3335 22.0001H25.6668C27.876 22.0001 29.6668 20.2092 29.6668 18.0001V4.66675C29.6668 2.45761 27.876 0.666748 25.6668 0.666748H4.3335C2.12436 0.666748 0.333496 2.45761 0.333496 4.66675V18.0001C0.333496 20.2092 2.12436 22.0001 4.3335 22.0001H13.6668V24.6667H9.66683C8.93045 24.6667 8.3335 25.2637 8.3335 26.0001C8.3335 26.7365 8.93045 27.3334 9.66683 27.3334H20.3335C21.0699 27.3334 21.6668 26.7365 21.6668 26.0001C21.6668 25.2637 21.0699 24.6667 20.3335 24.6667H16.3335V22.0001ZM4.3335 3.33341C3.59712 3.33341 3.00016 3.93037 3.00016 4.66675V18.0001C3.00016 18.7365 3.59712 19.3334 4.3335 19.3334H25.6668C26.4032 19.3334 27.0002 18.7365 27.0002 18.0001V4.66675C27.0002 3.93037 26.4032 3.33341 25.6668 3.33341H4.3335Z" fill="#292F36"/>
</svg>
