<svg width="23" height="18" viewBox="0 0 23 18" fill="none" xmlns="http://www.w3.org/2000/svg">
<path fill-rule="evenodd" clip-rule="evenodd" d="M0.500135 2.98266C0.499973 2.99253 0.499957 3.00239 0.500086 3.01225V15C0.500086 16.6523 1.8478 18 3.50009 18H19.5001C21.1524 18 22.5001 16.6523 22.5001 15V3.01236C22.5002 3.00242 22.5002 2.99247 22.5 2.98251C22.4906 1.33822 21.1465 0 19.5001 0H3.50009C1.85359 0 0.509526 1.3383 0.500135 2.98266ZM2.60666 2.55395C2.77204 2.22692 3.11212 2 3.50009 2H19.5001C19.8881 2 20.2281 2.22692 20.3935 2.55395L11.5001 8.77934L2.60666 2.55395ZM20.5001 4.92066V15C20.5001 15.5477 20.0478 16 19.5001 16H3.50009C2.95237 16 2.50009 15.5477 2.50009 15V4.92066L10.9266 10.8192C11.2709 11.0603 11.7292 11.0603 12.0735 10.8192L20.5001 4.92066Z" fill="#292F36"/>
</svg>
